<svg width="150" height="30" viewBox="0 0 150 30" fill="none" xmlns="http://www.w3.org/2000/svg">
<path d="M1.37607 24V5.81818H13.7873V9.38707H5.7706V13.1158H12.9972V16.6935H5.7706V24H1.37607ZM21.3645 24.2575C19.9322 24.2575 18.7012 23.9645 17.6713 23.3786C16.6474 22.7867 15.8573 21.964 15.301 20.9105C14.7505 19.8511 14.4753 18.623 14.4753 17.2262C14.4753 15.8235 14.7505 14.5954 15.301 13.5419C15.8573 12.4825 16.6474 11.6598 17.6713 11.0739C18.7012 10.482 19.9322 10.1861 21.3645 10.1861C22.7968 10.1861 24.0249 10.482 25.0488 11.0739C26.0787 11.6598 26.8688 12.4825 27.4192 13.5419C27.9756 14.5954 28.2537 15.8235 28.2537 17.2262C28.2537 18.623 27.9756 19.8511 27.4192 20.9105C26.8688 21.964 26.0787 22.7867 25.0488 23.3786C24.0249 23.9645 22.7968 24.2575 21.3645 24.2575ZM21.3912 20.9815C21.912 20.9815 22.3529 20.8217 22.714 20.5021C23.075 20.1825 23.3502 19.7386 23.5396 19.1705C23.7349 18.6023 23.8326 17.9453 23.8326 17.1996C23.8326 16.442 23.7349 15.7791 23.5396 15.2109C23.3502 14.6428 23.075 14.1989 22.714 13.8793C22.3529 13.5597 21.912 13.3999 21.3912 13.3999C20.8526 13.3999 20.3968 13.5597 20.024 13.8793C19.657 14.1989 19.3759 14.6428 19.1806 15.2109C18.9912 15.7791 18.8965 16.442 18.8965 17.1996C18.8965 17.9453 18.9912 18.6023 19.1806 19.1705C19.3759 19.7386 19.657 20.1825 20.024 20.5021C20.3968 20.8217 20.8526 20.9815 21.3912 20.9815ZM36.843 24.2575C35.4107 24.2575 34.1797 23.9645 33.1499 23.3786C32.1259 22.7867 31.3358 21.964 30.7795 20.9105C30.229 19.8511 29.9538 18.623 29.9538 17.2262C29.9538 15.8235 30.229 14.5954 30.7795 13.5419C31.3358 12.4825 32.1259 11.6598 33.1499 11.0739C34.1797 10.482 35.4107 10.1861 36.843 10.1861C38.2753 10.1861 39.5034 10.482 40.5273 11.0739C41.5572 11.6598 42.3473 12.4825 42.8977 13.5419C43.4541 14.5954 43.7322 15.8235 43.7322 17.2262C43.7322 18.623 43.4541 19.8511 42.8977 20.9105C42.3473 21.964 41.5572 22.7867 40.5273 23.3786C39.5034 23.9645 38.2753 24.2575 36.843 24.2575ZM36.8697 20.9815C37.3905 20.9815 37.8314 20.8217 38.1925 20.5021C38.5535 20.1825 38.8287 19.7386 39.0181 19.1705C39.2134 18.6023 39.3111 17.9453 39.3111 17.1996C39.3111 16.442 39.2134 15.7791 39.0181 15.2109C38.8287 14.6428 38.5535 14.1989 38.1925 13.8793C37.8314 13.5597 37.3905 13.3999 36.8697 13.3999C36.3311 13.3999 35.8754 13.5597 35.5025 13.8793C35.1355 14.1989 34.8544 14.6428 34.6591 15.2109C34.4697 15.7791 34.375 16.442 34.375 17.1996C34.375 17.9453 34.4697 18.6023 34.6591 19.1705C34.8544 19.7386 35.1355 20.1825 35.5025 20.5021C35.8754 20.8217 36.3311 20.9815 36.8697 20.9815ZM50.9366 24.1953C49.9305 24.1953 49.016 23.9349 48.1934 23.4141C47.3707 22.8932 46.7137 22.112 46.2225 21.0703C45.7312 20.0286 45.4856 18.7354 45.4856 17.1907C45.4856 15.5868 45.7401 14.2669 46.2491 13.2312C46.7581 12.1954 47.4239 11.429 48.2466 10.9318C49.0752 10.4347 49.966 10.1861 50.9189 10.1861C51.635 10.1861 52.2476 10.3104 52.7566 10.5589C53.2656 10.8016 53.6858 11.1153 54.0172 11.5C54.3487 11.8847 54.6002 12.2842 54.7718 12.6985H54.8606V5.81818H59.2019V24H54.905V21.7894H54.7718C54.5884 22.2096 54.3279 22.6032 53.9906 22.9702C53.6532 23.3371 53.2301 23.633 52.7211 23.858C52.218 24.0829 51.6232 24.1953 50.9366 24.1953ZM52.4458 20.8129C52.9726 20.8129 53.4224 20.6649 53.7953 20.369C54.1681 20.0671 54.4552 19.6439 54.6564 19.0994C54.8577 18.5549 54.9583 17.9157 54.9583 17.1818C54.9583 16.4361 54.8577 15.7939 54.6564 15.2553C54.4611 14.7167 54.1741 14.3024 53.7953 14.0124C53.4224 13.7224 52.9726 13.5774 52.4458 13.5774C51.9073 13.5774 51.4515 13.7254 51.0787 14.0213C50.7058 14.3172 50.4217 14.7345 50.2264 15.2731C50.037 15.8117 49.9423 16.4479 49.9423 17.1818C49.9423 17.9157 50.04 18.5549 50.2353 19.0994C50.4306 19.6439 50.7117 20.0671 51.0787 20.369C51.4515 20.6649 51.9073 20.8129 52.4458 20.8129Z" fill="white"/>
<path d="M61.9474 5.81818H67.3895L72.0059 17.0753H72.219L76.8355 5.81818H82.2776V24H77.9985V12.8317H77.8476L73.4797 23.8846H70.7453L66.3774 12.7695H66.2265V24H61.9474V5.81818ZM91.3841 24.2575C89.9518 24.2575 88.7207 23.9645 87.6909 23.3786C86.667 22.7867 85.8768 21.964 85.3205 20.9105C84.7701 19.8511 84.4949 18.623 84.4949 17.2262C84.4949 15.8235 84.7701 14.5954 85.3205 13.5419C85.8768 12.4825 86.667 11.6598 87.6909 11.0739C88.7207 10.482 89.9518 10.1861 91.3841 10.1861C92.8163 10.1861 94.0444 10.482 95.0684 11.0739C96.0982 11.6598 96.8883 12.4825 97.4387 13.5419C97.9951 14.5954 98.2733 15.8235 98.2733 17.2262C98.2733 18.623 97.9951 19.8511 97.4387 20.9105C96.8883 21.964 96.0982 22.7867 95.0684 23.3786C94.0444 23.9645 92.8163 24.2575 91.3841 24.2575ZM91.4107 20.9815C91.9315 20.9815 92.3725 20.8217 92.7335 20.5021C93.0945 20.1825 93.3697 19.7386 93.5591 19.1705C93.7544 18.6023 93.8521 17.9453 93.8521 17.1996C93.8521 16.442 93.7544 15.7791 93.5591 15.2109C93.3697 14.6428 93.0945 14.1989 92.7335 13.8793C92.3725 13.5597 91.9315 13.3999 91.4107 13.3999C90.8721 13.3999 90.4164 13.5597 90.0435 13.8793C89.6766 14.1989 89.3954 14.6428 89.2001 15.2109C89.0107 15.7791 88.916 16.442 88.916 17.1996C88.916 17.9453 89.0107 18.6023 89.2001 19.1705C89.3954 19.7386 89.6766 20.1825 90.0435 20.5021C90.4164 20.8217 90.8721 20.9815 91.4107 20.9815ZM106.863 24.2575C105.43 24.2575 104.199 23.9645 103.169 23.3786C102.145 22.7867 101.355 21.964 100.799 20.9105C100.249 19.8511 99.9734 18.623 99.9734 17.2262C99.9734 15.8235 100.249 14.5954 100.799 13.5419C101.355 12.4825 102.145 11.6598 103.169 11.0739C104.199 10.482 105.43 10.1861 106.863 10.1861C108.295 10.1861 109.523 10.482 110.547 11.0739C111.577 11.6598 112.367 12.4825 112.917 13.5419C113.474 14.5954 113.752 15.8235 113.752 17.2262C113.752 18.623 113.474 19.8511 112.917 20.9105C112.367 21.964 111.577 22.7867 110.547 23.3786C109.523 23.9645 108.295 24.2575 106.863 24.2575ZM106.889 20.9815C107.41 20.9815 107.851 20.8217 108.212 20.5021C108.573 20.1825 108.848 19.7386 109.038 19.1705C109.233 18.6023 109.331 17.9453 109.331 17.1996C109.331 16.442 109.233 15.7791 109.038 15.2109C108.848 14.6428 108.573 14.1989 108.212 13.8793C107.851 13.5597 107.41 13.3999 106.889 13.3999C106.351 13.3999 105.895 13.5597 105.522 13.8793C105.155 14.1989 104.874 14.6428 104.679 15.2109C104.489 15.7791 104.395 16.442 104.395 17.1996C104.395 17.9453 104.489 18.6023 104.679 19.1705C104.874 19.7386 105.155 20.1825 105.522 20.5021C105.895 20.8217 106.351 20.9815 106.889 20.9815ZM120.956 24.1953C119.95 24.1953 119.036 23.9349 118.213 23.4141C117.39 22.8932 116.733 22.112 116.242 21.0703C115.751 20.0286 115.505 18.7354 115.505 17.1907C115.505 15.5868 115.76 14.2669 116.269 13.2312C116.778 12.1954 117.443 11.429 118.266 10.9318C119.095 10.4347 119.985 10.1861 120.938 10.1861C121.655 10.1861 122.267 10.3104 122.776 10.5589C123.285 10.8016 123.705 11.1153 124.037 11.5C124.368 11.8847 124.62 12.2842 124.791 12.6985H124.88V5.81818H129.221V24H124.925V21.7894H124.791C124.608 22.2096 124.347 22.6032 124.01 22.9702C123.673 23.3371 123.25 23.633 122.741 23.858C122.238 24.0829 121.643 24.1953 120.956 24.1953ZM122.465 20.8129C122.992 20.8129 123.442 20.6649 123.815 20.369C124.188 20.0671 124.475 19.6439 124.676 19.0994C124.877 18.5549 124.978 17.9157 124.978 17.1818C124.978 16.4361 124.877 15.7939 124.676 15.2553C124.481 14.7167 124.194 14.3024 123.815 14.0124C123.442 13.7224 122.992 13.5774 122.465 13.5774C121.927 13.5774 121.471 13.7254 121.098 14.0213C120.725 14.3172 120.441 14.7345 120.246 15.2731C120.057 15.8117 119.962 16.4479 119.962 17.1818C119.962 17.9157 120.059 18.5549 120.255 19.0994C120.45 19.6439 120.731 20.0671 121.098 20.369C121.471 20.6649 121.927 20.8129 122.465 20.8129Z" fill="#93FF0A"/>
<path d="M132.344 7.57031V6H139.105V7.57031H136.68V14H134.773V7.57031H132.344ZM140.05 6H142.444L144.476 10.9531H144.569L146.601 6H148.995V14H147.112V9.08594H147.046L145.124 13.9492H143.921L141.999 9.05859H141.933V14H140.05V6Z" fill="#93FF0A"/>
</svg>
